<svg id="circuit-kvazq7d1" height="176" width="250" viewBox="0 0 250 176" xmlns="http://www.w3.org/2000/svg" xmlns:svg="http://www.w3.org/2000/svg" style="background-color: #ffffff;"><defs><filter id="dropshadow" height="140%" width="140%"><feGaussianBlur in="SourceAlpha" stdDeviation="1"></feGaussianBlur> <feOffset dx="1" dy="2" result="offsetblur"></feOffset> <feMerge><feMergeNode></feMergeNode> <feMergeNode in="SourceGraphic"></feMergeNode></feMerge></filter> <linearGradient id="fixed-right-shadow"><stop offset="5%" stop-color="#ffffff" stop-opacity="0"></stop> <stop offset="95%" stop-color="#ffffff"></stop></linearGradient> <clipPath id="gates-area-kvazq7d1"><rect x="50" y="0" width="200" height="176"></rect></clipPath></defs>  <g style=""><g><g transform="translate(50, 40)"><line x1="0" x2="190" y1="0" y2="0" fill="none" style="stroke: #e0e0e0; stroke-width: 1px; stroke-linecap: round;"></line></g><g transform="translate(50, 80)"><line x1="0" x2="190" y1="0" y2="0" fill="none" style="stroke: #e0e0e0; stroke-width: 1px; stroke-linecap: round;"></line></g><g transform="translate(50, 120)"><line x1="0" x2="190" y1="0" y2="0" fill="none" style="stroke: #e0e0e0; stroke-width: 1px; stroke-linecap: round;"></line></g></g>   <g selection="" style="font-family: &quot;IBM Plex Sans&quot;, sans-serif;"><g data-index="0" class="svg-gate gate">  <g class="control"><g class="control-line"><line x1="84" y1="40" x2="84" y2="120" style="stroke-width: 3px; stroke: #002d9c;"></line></g> <g class="control-dots"><g data-control-param="a" class="control-dot"><circle r="10" cx="84" cy="80" fill="transparent" stroke-width="1" stroke="transparent"></circle> <circle r="6" cx="84" cy="80" fill="#ffffff"></circle> <circle r="6" cx="84" cy="80" style="fill: #002d9c; opacity: 1;"></circle></g><g data-control-param="b" class="control-dot"><circle r="10" cx="84" cy="120" fill="transparent" stroke-width="1" stroke="transparent"></circle> <circle r="6" cx="84" cy="120" fill="#ffffff"></circle> <circle r="6" cx="84" cy="120" style="fill: #002d9c; opacity: 1;"></circle></g></g></g> <g transform="translate(68,24)"> <circle cx="16" cy="16" r="16" style="fill: #002d9c;"></circle>   <path slot="label" transform="translate(16, 16) scale(0.8)" d="M1.1-1.2v-9.4h-2.2v9.4h-8.8v2.4h8.8v9.4h2.2V1.2h8.8v-2.4H1.1z" fill="#ffffff"></path></g> </g><g data-index="1" class="svg-gate gate">  <g class="control"><g class="control-line"><line x1="134" y1="40" x2="134" y2="80" style="stroke-width: 3px; stroke: #002d9c;"></line></g> <g class="control-dots"><g data-control-param="c" class="control-dot"><circle r="10" cx="134" cy="80" fill="transparent" stroke-width="1" stroke="transparent"></circle> <circle r="6" cx="134" cy="80" fill="#ffffff"></circle> <circle r="6" cx="134" cy="80" style="fill: #002d9c; opacity: 1;"></circle></g></g></g> <g transform="translate(118,24)"> <circle cx="16" cy="16" r="16" style="fill: #002d9c;"></circle>   <path slot="label" transform="translate(16, 16) scale(0.8)" d="M1.1-1.2v-9.4h-2.2v9.4h-8.8v2.4h8.8v9.4h2.2V1.2h8.8v-2.4H1.1z" fill="#ffffff"></path></g> </g><g data-index="2" class="svg-gate gate">  <g class="control"><g class="control-line"><line x1="184" y1="40" x2="184" y2="120" style="stroke-width: 3px; stroke: #002d9c;"></line></g> <g class="control-dots"><g data-control-param="c" class="control-dot"><circle r="10" cx="184" cy="120" fill="transparent" stroke-width="1" stroke="transparent"></circle> <circle r="6" cx="184" cy="120" fill="#ffffff"></circle> <circle r="6" cx="184" cy="120" style="fill: #002d9c; opacity: 1;"></circle></g></g></g> <g transform="translate(168,24)"> <circle cx="16" cy="16" r="16" style="fill: #002d9c;"></circle>   <path slot="label" transform="translate(16, 16) scale(0.8)" d="M1.1-1.2v-9.4h-2.2v9.4h-8.8v2.4h8.8v9.4h2.2V1.2h8.8v-2.4H1.1z" fill="#ffffff"></path></g> </g></g> </g> <svg x="0" y="0" width="50" height="100%" class="fixedLabels"><g><svg x="24" y="28" width="25px" height="1em" class="registerLabel" style="overflow: visible;"><text font-family="'IBM Plex Mono'" font-weight="400" x="0" y="1em" style="fill: #6f6f6f;"><tspan font-size="14px">q</tspan> <tspan dy="2" dx="1" font-size="10px">0</tspan></text> </svg><svg x="24" y="68" width="25px" height="1em" class="registerLabel" style="overflow: visible;"><text font-family="'IBM Plex Mono'" font-weight="400" x="0" y="1em" style="fill: #6f6f6f;"><tspan font-size="14px">q</tspan> <tspan dy="2" dx="1" font-size="10px">1</tspan></text> </svg><svg x="24" y="108" width="25px" height="1em" class="registerLabel" style="overflow: visible;"><text font-family="'IBM Plex Mono'" font-weight="400" x="0" y="1em" style="fill: #6f6f6f;"><tspan font-size="14px">q</tspan> <tspan dy="2" dx="1" font-size="10px">2</tspan></text> </svg> </g> </svg>  <g></g></svg>